# xmcd
# 
# Track frame offsets:
#     187
#     21767
#     45767
#     63357
#     75042
#     94610
#     113625
#     128835
#     151317
#     172457
# 
# Disc length: 2499
# 
# Revision: 7
# Processed by: cddbd v1.5.2PL0 Copyright (c) Steve Scherf et al.
# Submitted via: fre:ac v1.0.31
# 
DISCID=6b09c10a
DTITLE=Diane Schuur - Deedles
DYEAR=1984
DGENRE=Jazz
TTITLE0=The Very Thought Of You
TTITLE1=New York State Of Mind
TTITLE2=Teach Me Tonight
TTITLE3=I'm Beginning To See The Light
TTITLE4=I'll Close My Eyes
TTITLE5=Reverend Lee
TTITLE6=I'm Just Foolin' Myself
TTITLE7=Rock Me On The Water
TTITLE8=Can't Stop A Woman In Love
TTITLE9=Amazing Grace
EXTD=
EXTT0=
EXTT1=
EXTT2=
EXTT3=
EXTT4=
EXTT5=
EXTT6=
EXTT7=
EXTT8=
EXTT9=
PLAYORDER=
